<svg id="visual" viewBox="0 0 960 540" width="960" height="540" xmlns="http://www.w3.org/2000/svg" xmlns:xlink="http://www.w3.org/1999/xlink" version="1.1"><rect x="0" y="0" width="960" height="540" fill="#f8fff2"></rect><path d="M0 290L22.8 284.2C45.7 278.3 91.3 266.7 137 268.8C182.7 271 228.3 287 274 275.2C319.7 263.3 365.3 223.7 411.2 210.2C457 196.7 503 209.3 548.8 218C594.7 226.7 640.3 231.3 686 240.2C731.7 249 777.3 262 823 259.7C868.7 257.3 914.3 239.7 937.2 230.8L960 222L960 541L937.2 541C914.3 541 868.7 541 823 541C777.3 541 731.7 541 686 541C640.3 541 594.7 541 548.8 541C503 541 457 541 411.2 541C365.3 541 319.7 541 274 541C228.3 541 182.7 541 137 541C91.3 541 45.7 541 22.8 541L0 541Z" fill="#a1cd9d"></path><path d="M0 354L22.8 349C45.7 344 91.3 334 137 328C182.7 322 228.3 320 274 316.5C319.7 313 365.3 308 411.2 301.5C457 295 503 287 548.8 292.5C594.7 298 640.3 317 686 320.5C731.7 324 777.3 312 823 297.2C868.7 282.3 914.3 264.7 937.2 255.8L960 247L960 541L937.2 541C914.3 541 868.7 541 823 541C777.3 541 731.7 541 686 541C640.3 541 594.7 541 548.8 541C503 541 457 541 411.2 541C365.3 541 319.7 541 274 541C228.3 541 182.7 541 137 541C91.3 541 45.7 541 22.8 541L0 541Z" fill="#85be90"></path><path d="M0 346L22.8 346.8C45.7 347.7 91.3 349.3 137 355.8C182.7 362.3 228.3 373.7 274 378.7C319.7 383.7 365.3 382.3 411.2 369C457 355.7 503 330.3 548.8 321C594.7 311.7 640.3 318.3 686 331.8C731.7 345.3 777.3 365.7 823 371.7C868.7 377.7 914.3 369.3 937.2 365.2L960 361L960 541L937.2 541C914.3 541 868.7 541 823 541C777.3 541 731.7 541 686 541C640.3 541 594.7 541 548.8 541C503 541 457 541 411.2 541C365.3 541 319.7 541 274 541C228.3 541 182.7 541 137 541C91.3 541 45.7 541 22.8 541L0 541Z" fill="#67b085"></path><path d="M0 411L22.8 407.7C45.7 404.3 91.3 397.7 137 399.7C182.7 401.7 228.3 412.3 274 408.5C319.7 404.7 365.3 386.3 411.2 386.3C457 386.3 503 404.7 548.8 412.8C594.7 421 640.3 419 686 420.3C731.7 421.7 777.3 426.3 823 422.8C868.7 419.3 914.3 407.7 937.2 401.8L960 396L960 541L937.2 541C914.3 541 868.7 541 823 541C777.3 541 731.7 541 686 541C640.3 541 594.7 541 548.8 541C503 541 457 541 411.2 541C365.3 541 319.7 541 274 541C228.3 541 182.7 541 137 541C91.3 541 45.7 541 22.8 541L0 541Z" fill="#45a17c"></path><path d="M0 442L22.8 444.5C45.7 447 91.3 452 137 450.3C182.7 448.7 228.3 440.3 274 438.3C319.7 436.3 365.3 440.7 411.2 450.7C457 460.7 503 476.3 548.8 474.5C594.7 472.7 640.3 453.3 686 449.5C731.7 445.7 777.3 457.3 823 463.7C868.7 470 914.3 471 937.2 471.5L960 472L960 541L937.2 541C914.3 541 868.7 541 823 541C777.3 541 731.7 541 686 541C640.3 541 594.7 541 548.8 541C503 541 457 541 411.2 541C365.3 541 319.7 541 274 541C228.3 541 182.7 541 137 541C91.3 541 45.7 541 22.8 541L0 541Z" fill="#099274"></path></svg>