<svg id="visual" viewBox="0 0 960 400" width="960" height="400" xmlns="http://www.w3.org/2000/svg" xmlns:xlink="http://www.w3.org/1999/xlink" version="1.1"><rect x="0" y="0" width="960" height="300" fill="#ffffff"></rect><path d="M0 52L22.8 59.3C45.7 66.7 91.3 81.3 137 82.7C182.7 84 228.3 72 274 64.7C319.7 57.3 365.3 54.7 411.2 54.5C457 54.3 503 56.7 548.8 64C594.7 71.3 640.3 83.7 686 89.8C731.7 96 777.3 96 823 91.8C868.7 87.7 914.3 79.3 937.2 75.2L960 71L960 0L937.2 0C914.3 0 868.7 0 823 0C777.3 0 731.7 0 686 0C640.3 0 594.7 0 548.8 0C503 0 457 0 411.2 0C365.3 0 319.7 0 274 0C228.3 0 182.7 0 137 0C91.3 0 45.7 0 22.8 0L0 0Z" fill="#c1f7c9"></path><path d="M0 42L22.8 43C45.7 44 91.3 46 137 46C182.7 46 228.3 44 274 45.3C319.7 46.7 365.3 51.3 411.2 52.2C457 53 503 50 548.8 47.2C594.7 44.3 640.3 41.7 686 41.3C731.7 41 777.3 43 823 46.8C868.7 50.7 914.3 56.3 937.2 59.2L960 62L960 0L937.2 0C914.3 0 868.7 0 823 0C777.3 0 731.7 0 686 0C640.3 0 594.7 0 548.8 0C503 0 457 0 411.2 0C365.3 0 319.7 0 274 0C228.3 0 182.7 0 137 0C91.3 0 45.7 0 22.8 0L0 0Z" fill="#87f3a5"></path><path d="M0 36L22.8 32.7C45.7 29.3 91.3 22.7 137 23.2C182.7 23.7 228.3 31.3 274 34.7C319.7 38 365.3 37 411.2 35.8C457 34.7 503 33.3 548.8 31.3C594.7 29.3 640.3 26.7 686 25.8C731.7 25 777.3 26 823 24.7C868.7 23.3 914.3 19.7 937.2 17.8L960 16L960 0L937.2 0C914.3 0 868.7 0 823 0C777.3 0 731.7 0 686 0C640.3 0 594.7 0 548.8 0C503 0 457 0 411.2 0C365.3 0 319.7 0 274 0C228.3 0 182.7 0 137 0C91.3 0 45.7 0 22.8 0L0 0Z" fill="#05ed85"></path></svg>